<svg width="1266" height="283" viewBox="0 0 1266 283" fill="none" xmlns="http://www.w3.org/2000/svg">
<circle cx="91.4566" cy="127.209" r="91.4566" fill="#E0E0E0" fill-opacity="0.5"/>
<circle cx="238.915" cy="184.419" r="91.4566" fill="#E0E0E0" fill-opacity="0.5"/>
<circle cx="493.544" cy="92.5599" r="91.4566" fill="#E0E0E0" fill-opacity="0.5"/>
<circle cx="432.304" cy="21.6508" r="45.5269" fill="#E0E0E0" fill-opacity="0.5"/>
<circle cx="284.845" cy="-23.4731" r="45.5269" fill="#E0E0E0" fill-opacity="0.5"/>
<circle cx="115.63" cy="22.4566" r="45.5269" fill="#E0E0E0" fill-opacity="0.5"/>
<path d="M614.554 29C614.554 54.1438 594.171 74.5269 569.027 74.5269C543.883 74.5269 523.5 54.1438 523.5 29C523.5 3.85621 543.883 -16.5269 569.027 -16.5269C594.171 -16.5269 614.554 3.85621 614.554 29Z" fill="#E0E0E0" fill-opacity="0.5"/>
<circle cx="207.49" cy="61.1343" r="91.4566" fill="#E0E0E0" fill-opacity="0.5"/>
<circle cx="310.63" cy="127.209" r="91.4566" fill="#E0E0E0" fill-opacity="0.5"/>
<circle cx="350.919" cy="61.1343" r="91.4566" fill="#E0E0E0" fill-opacity="0.5"/>
<circle cx="441.973" cy="143.324" r="91.4566" fill="#E0E0E0" fill-opacity="0.5"/>
<circle r="95.0523" transform="matrix(-1 0 0 1 1170.95 127.923)" fill="#E0E0E0" fill-opacity="0.5"/>
<circle r="95.0523" transform="matrix(-1 0 0 1 1017.69 187.383)" fill="#E0E0E0" fill-opacity="0.5"/>
<circle r="95.0523" transform="matrix(-1 0 0 1 753.052 91.9118)" fill="#E0E0E0" fill-opacity="0.5"/>
<circle r="47.3168" transform="matrix(-1 0 0 1 816.7 18.2149)" fill="#E0E0E0" fill-opacity="0.5"/>
<circle r="47.3168" transform="matrix(-1 0 0 1 969.956 -28.6832)" fill="#E0E0E0" fill-opacity="0.5"/>
<circle r="47.3168" transform="matrix(-1 0 0 1 1145.82 19.0523)" fill="#E0E0E0" fill-opacity="0.5"/>
<circle r="47.3168" transform="matrix(-1 0 0 1 688.317 18.3168)" fill="#E0E0E0" fill-opacity="0.5"/>
<circle r="95.0523" transform="matrix(-1 0 0 1 1050.35 59.2507)" fill="#E0E0E0" fill-opacity="0.5"/>
<circle r="95.0523" transform="matrix(-1 0 0 1 943.157 127.923)" fill="#E0E0E0" fill-opacity="0.5"/>
<circle r="95.0523" transform="matrix(-1 0 0 1 901.284 59.2507)" fill="#E0E0E0" fill-opacity="0.5"/>
<circle r="95.0523" transform="matrix(-1 0 0 1 806.65 144.672)" fill="#E0E0E0" fill-opacity="0.5"/>
</svg>
