<svg width="1440" height="653" viewBox="0 0 1440 653" fill="none" xmlns="http://www.w3.org/2000/svg">
<rect y="379" width="1440" height="274" fill="#AAAAAA"/>
<rect x="138" y="-54" width="120" height="484" fill="#AAAAAA"/>
<rect x="1182" y="-54" width="120" height="484" fill="#AAAAAA"/>
<path d="M784.873 391.629C784.61 391.005 783.652 390.82 783.652 390.82L782.417 388.939L782.126 389.195C782.126 389.195 781.864 388.712 781.757 388.563C781.651 388.414 780.835 387.641 780.835 387.641L764.319 374.347C764.319 374.347 764.284 372.977 764.284 372.317C764.284 371.657 763.574 371.466 763.574 371.466H762.396V370.394C762.803 370.395 763.209 370.359 763.61 370.288L765.164 369.911C765.415 369.99 765.675 370.04 765.937 370.06C766.236 370.06 766.271 369.585 766.157 368.953C766.044 368.322 765.313 368.066 765.313 368.066L764.681 366.994L764.461 367.108L764.866 368.364L764.717 368.918C764.487 368.99 764.246 369.014 764.007 368.989C763.524 368.89 763.05 368.754 762.587 368.584V367.108H761.956V360.493L763.141 360.273L763.432 360.685L776.74 382.474L778.038 381.551L764.149 358.946L763.439 358.868L762.289 358.158V328.655L763.51 333.24C763.593 333.304 763.691 333.345 763.795 333.357C763.899 333.37 764.004 333.353 764.099 333.311C764.191 333.276 764.27 333.217 764.33 333.139C764.389 333.061 764.424 332.968 764.433 332.871L762.367 323.857V313.921H763.964V313.332C763.964 313.332 766.037 313.034 768.471 312.778C770.906 312.523 775.568 311.777 775.455 310.855C775.341 309.932 764.852 309.435 764.852 309.435C764.042 309.04 763.166 308.799 762.268 308.726C761.352 308.818 760.461 309.083 759.642 309.506H759.167L756.221 298.747L756.931 297.221C756.931 297.221 759.06 296.965 761.899 296.511V308.144H762.389V296.497C768.201 295.596 776.498 294.034 775.987 292.487C775.199 290.124 759.188 290.862 759.188 290.862C758.541 290.638 757.854 290.553 757.172 290.613C756.137 290.677 755.113 290.86 754.12 291.16C752.876 291.497 751.606 291.734 750.323 291.869C748.308 292.16 737.328 294.283 737.548 296.248C737.768 298.214 753.51 297.334 753.51 297.334V299.208H754.837L757.981 309.634C756.37 309.719 754.021 309.847 753.276 309.918C752.091 310.024 747.917 310.358 748.308 312.097C748.698 313.836 755.029 313.644 755.029 313.644V314.943H747.641V314.276H748.932V313.254H745.511L745.405 313.701C745.232 312.995 745.009 312.303 744.738 311.628C744.548 311.115 744.231 310.658 743.815 310.301C743.815 310.301 743.744 310.046 743.595 309.414C742.987 307.65 742.246 305.935 741.381 304.283C740.557 303.174 739.494 302.264 738.272 301.621C736.694 301.024 735.083 300.52 733.446 300.109C732.911 300.068 732.4 299.876 731.97 299.556C731.835 299.438 731.671 299.358 731.495 299.326C731.319 299.293 731.137 299.309 730.969 299.371L730.671 299.258C730.671 299.258 731.381 296.859 731.601 295.752C731.678 294.972 731.564 294.185 731.267 293.459C731.267 293.09 731.338 292.089 731.267 291.614C731.139 291.108 730.925 290.628 730.635 290.194L731.047 290.493C731.047 290.493 731.047 290.159 731.047 289.641C730.954 288.43 730.587 287.255 729.975 286.206C729.266 285.099 726.242 283.402 722.921 284.211C721.634 284.489 720.486 285.209 719.676 286.247C718.867 287.285 718.447 288.574 718.492 289.889C718.486 290.958 718.595 292.024 718.818 293.069C718.818 293.069 718.563 292.92 718.747 294.098C718.932 295.276 720.444 296.277 720.444 296.277C720.444 296.277 720.522 296.689 720.671 297.696C720.82 298.704 721.04 299.918 721.04 299.918C721.04 299.918 720.004 300.727 719.415 301.131C718.825 301.536 717.605 301.841 717.193 302.203C716.781 302.565 715.241 302.792 713.503 303.679C711.764 304.567 710.735 306.199 710.486 306.241C710.238 306.284 709.315 308.747 708.605 310.741C707.896 312.736 707.094 316.582 706.945 317.022C706.796 317.462 706.611 317.732 706.391 318.314C706.362 318.38 706.347 318.451 706.347 318.523C706.346 318.595 706.36 318.666 706.388 318.733C706.416 318.799 706.457 318.859 706.509 318.909C706.561 318.959 706.622 318.998 706.689 319.024C706.689 319.024 706.611 319.393 706.427 320.358C706.204 322.134 706.081 323.92 706.057 325.709C705.986 327.931 707.392 330.067 708.35 332.061C709.308 334.056 709.975 335.866 709.862 336.235C709.748 336.604 709.152 337.654 708.903 338.236C708.655 338.818 708.314 338.825 707.683 339.897C707.514 340.232 707.438 340.607 707.464 340.982C707.491 341.357 707.618 341.717 707.832 342.026V343.566C707.378 343.729 706.923 343.907 706.483 344.099L707.456 342.431L707.307 341.543L706.597 340.954L705.695 342.963L705.596 342.722C705.497 342.473 704.808 341.302 704.808 341.302L705.397 340.713C705.773 340.184 705.932 339.532 705.845 338.889L707.42 338.25L707.81 338.74C708.063 338.362 708.381 338.03 708.747 337.761C708.859 337.71 708.957 337.635 709.035 337.54C709.112 337.445 709.167 337.334 709.194 337.214C709.194 337.214 708.598 336.625 707.669 335.837C706.842 335.252 705.926 334.804 704.957 334.51L705.007 332.984L704.659 332.736L704.709 331.65C704.709 331.65 700.082 330.763 691.224 329.925C687.512 329.577 684.191 329.428 681.593 329.365L681.423 325.937L683.268 325.276C689.258 327.789 700.557 328.747 701.593 325.937C702.629 323.126 693.162 317.945 684.886 314.531C679.421 312.281 672.438 310.713 667.753 310.656V306.128C667.981 305.997 668.167 305.806 668.293 305.575C668.418 305.345 668.477 305.084 668.463 304.822C671.792 305.532 674.141 305.979 677.157 306.596C680.174 307.214 682.835 307.682 683.091 307.306C683.346 306.93 683.587 306.029 680.039 304.574C676.49 303.119 670.656 301.295 670.656 301.295C670.656 301.295 669.946 300.585 669.428 300.088C668.447 299.297 667.286 298.761 666.048 298.525C664.81 298.29 663.534 298.364 662.331 298.74C661.799 298.976 661.209 299.053 660.635 298.96C658.085 298.366 655.502 297.93 652.899 297.654C649.875 297.498 646.859 297.384 646.696 298.207C646.532 299.031 650.407 300.393 655.376 301.671L665.241 304.205C665.157 304.424 665.128 304.66 665.158 304.893C665.188 305.126 665.275 305.348 665.411 305.539C665.756 305.936 666.218 306.212 666.731 306.327V310.692C664.865 310.77 663.481 311.146 662.913 311.891C661.77 313.367 664.332 315.503 666.731 317.058V332.388L644.02 353.403C643.983 353.616 643.997 353.834 644.062 354.04C644.126 354.246 644.238 354.434 644.389 354.588C644.697 354.898 645.078 355.125 645.496 355.248L653.104 348.151L653.694 348.747V377.782C649.031 377.853 645.347 378.769 645.347 379.912C645.347 380.848 647.987 381.65 651.621 381.913L649.833 384.972C649.555 385.339 649.331 385.742 649.165 386.171C648.867 386.917 648.009 388.301 648.576 388.712C648.949 388.898 649.361 388.989 649.778 388.977C650.194 388.964 650.6 388.849 650.961 388.641C651.251 388.366 651.483 388.036 651.644 387.671C651.804 387.305 651.891 386.911 651.898 386.512C651.968 385.964 651.91 385.408 651.728 384.887L653.637 381.956H654.346C659.315 381.956 663.317 381.012 663.317 379.826C663.317 378.826 660.344 377.988 656.355 377.768L658.52 374.468L665.461 379.833L662.728 384.085C662.434 384.264 662.201 384.529 662.061 384.844C661.82 385.391 660.982 387.506 660.982 387.506C661.248 387.713 661.553 387.866 661.878 387.955C662.203 388.044 662.543 388.067 662.877 388.024C663.57 387.854 664.201 387.495 664.701 386.988L664.602 385.022L664.212 384.482L667.604 379.479H668.569C668.569 379.479 669.279 379.748 669.528 379.55C669.723 379.347 669.873 379.105 669.968 378.84L672.757 376.711L676.717 382.665L676.199 383.552L675.979 383.602L675.269 385.447C675.42 385.612 675.602 385.745 675.804 385.838C676.006 385.932 676.225 385.985 676.447 385.994C677.313 386.093 677.611 385.675 677.611 385.675L677.562 384.255C677.634 384.369 677.731 384.465 677.845 384.538C677.959 384.61 678.088 384.657 678.222 384.674C678.489 384.668 678.753 384.628 679.01 384.553L679.137 384.851L680.166 384.972L681.55 384.454L682.388 384.063C682.388 384.063 682.949 383.914 682.998 383.666C683.026 383.471 683.026 383.272 682.998 383.077L684.013 381.892L684.382 381.182C684.617 381.379 684.837 381.593 685.042 381.821C685.205 382.081 685.329 382.363 685.411 382.658L685.191 382.885L685.489 385.398C685.489 385.398 686.398 386.626 687.619 386.278C688.839 385.93 688.577 385.071 688.577 385.071L687.001 382.048L686.76 382.098L686.44 381.65L686.114 380.763L685.085 379.826L688.186 374.149L688.555 373.929L691.217 378.038L691.387 379.145L691.756 381.608L692.374 381.828L694.184 381.87C694.46 382.332 694.751 382.779 695.057 383.219L692.076 392.935L692.26 392.992L691.316 392.765L690.543 394.653H693.978L694.084 393.432L693.041 393.184L695.788 384.234C698.097 387.284 701.046 389.793 704.426 391.585C707.807 393.376 711.538 394.408 715.359 394.607C719.18 394.805 722.999 394.167 726.547 392.735C730.095 391.304 733.288 389.115 735.902 386.32L737.321 391.778L737.087 391.878L736.306 394.007L739.635 393.787L739.741 392.9L738.393 391.941L736.711 385.447C737.467 384.569 738.162 383.64 738.79 382.665L739.415 382.814L740.706 380.508C741.338 381.296 742.346 382.374 743.474 382.218C744.395 381.98 745.256 381.552 746.001 380.962L745.916 381.523L744.915 383.588C744.609 383.513 744.287 383.542 743.999 383.67C743.711 383.799 743.474 384.02 743.325 384.298C742.921 385.298 743.694 385.923 744.66 386.221C745.625 386.519 746.079 385.994 746.136 385.511C746.132 385.023 746.031 384.54 745.838 384.092L746.611 382.168L750.643 384.901L751.352 385.014L752.062 384.901L753.482 384.645L755.476 384.496L755.547 384.092L757.541 382.985L757.506 385.604L761.715 385.824L764.745 384.567L764.525 379.472L766.888 378.364C766.888 378.364 778.407 387.711 779.593 388.705C780.778 389.699 780.735 389.961 780.735 389.961L780.366 390.224L781.587 391.991C781.542 392.442 781.674 392.893 781.956 393.247C782.195 393.582 782.548 393.82 782.948 393.915C783.349 394.01 783.77 393.957 784.135 393.765C784.488 393.552 784.755 393.221 784.89 392.831C785.025 392.441 785.019 392.015 784.873 391.629ZM666.348 378.08L666.305 378.499L659.407 373.176C659.407 373.176 663.665 365.369 664.134 364.979C664.801 364.512 665.501 364.092 666.227 363.723L666.348 364.163V378.08ZM666.731 336.682H666.362V362.232C665.281 362.585 664.305 363.202 663.523 364.028C662.814 364.823 658.449 371.48 655.219 376.42V350.727L655.667 350.436L655.958 348.96C656.304 348.529 656.547 348.024 656.667 347.484C656.958 346.448 655.702 345.113 655.702 345.113L666.731 334.609V336.682ZM679.719 323.488V326.327L677.505 324.467L676.667 324.524L674.538 321.416L679.719 323.488ZM667.753 317.81V317.746C669.102 318.555 670.188 319.088 670.188 319.088L674.765 324.929L667.753 331.437V317.81ZM668.413 376.044V363.794L669.123 363.744L671.415 365.163L673.878 368.315L668.413 376.044ZM669.123 378.237L668.655 378.308L671.238 374.468L672.203 375.703L669.123 378.237ZM671.962 373.531L675.014 369.493L676.958 371.884L673.019 374.858L671.962 373.531ZM675.773 368.414L678.186 364.667L678.896 364.745L679.173 365.114L679.315 372.594L675.773 368.414ZM678.534 382.793L677.824 381.736L679.372 379.443V382.424L678.534 382.793ZM679.372 378.066L677.526 381.019V380.969L673.644 375.873L677.682 372.722L679.407 374.766L679.372 378.066ZM679.961 362.942H677.675L674.723 367.158L672.182 364.198C671.749 363.783 671.25 363.442 670.706 363.19V362.871L670.606 362.701L670.706 362.452L670.138 362.353L669.641 362.623L668.151 361.977V336.682H668.491V335.262H669.698V333.417H667.917L675.248 326.44L677.32 329.336C676.334 329.336 675.787 329.336 675.787 329.336L675.447 329.783L675.248 333.609L674.46 333.949L674.411 336.022L675.83 337.746L675.191 350.522C675.191 350.522 673.566 351.849 672.828 352.339C672.09 352.828 672.977 354.51 672.977 354.51L673.417 354.709L673.076 357.363L672.778 357.91L672.927 358.939C675.226 359.66 677.568 360.236 679.939 360.664L679.961 362.942ZM682.963 381.558L682.104 382.474L681.394 382.275V377.371L683.786 380.21L682.963 381.558ZM684.382 378.826L681.401 375.277V364.922L682.161 364.773L682.707 365.241L682.757 365.539L683.765 366.405L687.881 372.708L684.382 378.826ZM691.245 375.703L684.148 364.667L684.496 364.099L684.475 363.503L683.169 362.935H681.749V360.905L682.906 361.04C686.795 361.416 690.06 361.508 691.345 361.522C690.104 366.18 690.155 371.087 691.494 375.717L691.245 375.703ZM744.404 354.986C744.156 355.483 743.169 357.548 743.12 357.697C742.451 357.978 741.757 358.194 741.047 358.343C738.976 353.325 735.407 349.07 730.827 346.157C733.692 346.396 736.576 346.31 739.422 345.901L739.181 346.568C739.181 346.568 740.018 348.194 740.905 348.534L741.792 348.882C741.792 348.882 743.027 349.031 743.418 349.521C743.683 349.835 744 350.101 744.355 350.309C744.355 350.309 743.077 351.984 743.467 352.573C743.858 353.162 744.653 354.489 744.404 354.986ZM750.792 368.222L748.904 370.217L748.35 370.749C748.244 370.323 748.074 369.798 747.875 369.713C747.644 369.608 747.427 369.475 747.229 369.315L747.477 367.548L750.856 366.952L750.792 368.222Z" fill="#AAAAAA"/>
<path d="M904.863 380.249L904.528 379.412L903.714 377.395C903.564 377.018 903.389 376.652 903.189 376.299C902.979 375.88 902.68 375.511 902.313 375.218L902.161 375.332C901.658 374.84 901.183 374.319 900.738 373.772C899.924 372.714 896.727 367.684 894.254 364.252C892.414 361.852 890.339 359.641 888.059 357.653L888.752 357.608C888.752 357.608 884.695 354.853 884.185 354.449C883.675 354.046 883.988 353.803 884.672 353.475C885.357 353.148 883.097 350.431 882.732 349.51C882.366 348.589 883.051 346.352 883.417 345.5C883.782 344.647 882.77 344.366 882.488 343.802C882.221 343.167 881.99 342.516 881.796 341.854C881.978 340.436 882.25 339.03 882.61 337.646C882.975 336.671 882.854 332.942 882.854 332.942C882.854 332.942 883.66 333.635 883.904 333.597C884.147 333.559 883.66 328.041 883.5 326.466C883.199 324.707 883.092 322.921 883.181 321.139C883.284 318.084 883.106 315.027 882.648 312.006C882.283 310.103 883.097 305.202 883.013 303.262C882.93 301.321 882.024 293.254 881.461 291.389C880.898 289.525 878.584 287.508 877.815 286.534C877.047 285.56 873.401 284.791 873.401 284.791C873.269 284.179 873.228 283.551 873.28 282.927C873.401 282.166 874.452 279.205 874.535 276.648C874.619 274.091 872.465 271.709 867.838 271.1C866.422 270.838 864.959 271.095 863.718 271.825C862.476 272.555 861.54 273.708 861.08 275.073C860.891 275.868 860.86 276.693 860.989 277.5C860.989 277.828 859.573 278.596 859.467 279.159C859.36 279.723 860.639 280.537 860.639 280.537C860.639 280.537 860.03 281.511 859.878 281.793C859.725 282.074 860.365 282.889 860.365 282.889C860.249 282.975 860.14 283.069 860.037 283.17C859.878 283.33 860.037 283.779 860.281 284.099C860.525 284.418 860.243 284.586 860.197 285.887C860.152 287.188 863.888 286.732 863.888 286.732C864.018 287.118 864.125 287.512 864.208 287.911C864.504 288.557 864.871 289.167 865.304 289.73C864.447 289.82 863.604 290.012 862.792 290.301C861.62 290.743 859.474 292.729 858.378 293.345C857.283 293.962 853.561 296.785 853.561 296.785L853.378 295.971C853.295 295.446 853.097 292.927 853.051 291.405C853.005 289.883 853.295 286.793 853.295 286.793C853.692 286.727 854.084 286.63 854.467 286.504C855.067 286.173 855.614 285.752 856.088 285.255C856.508 284.683 856.849 284.055 857.1 283.391C857.305 283.102 856.818 282.577 856.613 282.417C856.407 282.257 856.377 281.656 856.255 281.405C856.133 281.153 855.768 281.405 855.768 281.405L855.661 281.108L855.859 280.575L855.905 280.217C855.943 279.852 855.661 279.456 855.144 279.243C854.626 279.03 853.888 279.852 853.888 279.852C853.798 279.736 853.683 279.643 853.551 279.579C853.419 279.516 853.274 279.484 853.127 279.487C852.723 279.555 852.359 279.772 852.107 280.096C852.107 280.096 852.031 279.974 851.704 280.172L851.019 280.621C851.019 280.621 850.814 280.461 850.205 280.697C849.865 280.805 849.562 281.004 849.327 281.272C849.092 281.541 848.935 281.868 848.873 282.219V282.371L842.495 284.654C842.495 284.654 841.925 285.096 842.008 285.339C842.092 285.583 842.861 285.742 842.861 285.742L848.949 284.296C848.977 284.643 849.062 284.982 849.2 285.301C849.444 285.704 849.322 286.389 849.2 287.691C849.078 288.992 847.967 290.864 847.29 294.715C846.613 298.566 847.374 302.006 847.899 302.691C848.424 303.376 849.482 303.581 850.616 303.703C851.75 303.825 857.701 302.942 857.701 302.942C857.701 302.942 858.028 303.391 858.272 303.231C858.648 302.919 859.006 302.586 859.345 302.234C859.438 302.869 859.478 303.511 859.467 304.152C859.467 305.446 859.345 308.399 859.307 311.443C859.269 314.487 858.98 318.49 859.101 319.738C859.223 320.986 859.429 322.09 859.429 322.09C859.429 322.09 859.223 322.212 858.736 322.577C857.805 323.088 856.923 323.684 856.103 324.358C855.943 324.579 855.857 324.846 855.857 325.119C855.857 325.392 855.943 325.658 856.103 325.88C856.093 326.249 856.134 326.618 856.225 326.976C856.392 327.79 857.564 328.193 857.564 328.193C857.596 328.451 857.65 328.706 857.724 328.954C857.846 329.358 858.416 329.601 858.416 329.601C858.668 329.964 858.87 330.358 859.018 330.773C859.047 330.88 859.1 330.98 859.171 331.064C859.243 331.149 859.332 331.217 859.433 331.263C859.534 331.309 859.644 331.333 859.755 331.333C859.866 331.332 859.975 331.308 860.076 331.26C860.441 331.139 860.152 330.499 860.076 330.126C860.029 329.875 860.029 329.617 860.076 329.365L860.837 329.244C861.083 330.418 861.246 331.608 861.324 332.805C861.299 333.415 861.325 334.026 861.4 334.632H862.009C862.009 334.632 861.605 340.72 861.605 341.839C861.605 342.958 861.24 345.971 861.24 346.618C861.338 347.207 861.351 347.807 861.278 348.399C861.235 348.957 861.404 349.511 861.75 349.952C861.75 349.952 861.187 354.936 860.989 356.398C860.89 358.866 860.918 361.337 861.073 363.803C861.111 364.092 862.648 364.046 863.827 363.924C864.842 363.865 865.859 363.881 866.872 363.97C866.872 363.97 867.724 367.981 868.576 372.798C869.054 375.241 869.309 377.722 869.337 380.211L869.414 382.783C869.025 383.179 866.91 385.333 866.027 385.333C866.027 385.333 860.593 385.835 860.106 386.489C859.818 386.868 859.648 387.323 859.619 387.798V388.811C861.365 389.427 863.209 389.724 865.06 389.686C868.45 389.523 871.828 389.182 875.182 388.666V384.024C875.189 383.445 875.131 382.868 875.007 382.304V380.211C875.007 380.211 875.129 377.532 875.289 375.028C875.511 372.636 875.918 370.264 876.506 367.935C876.91 366.192 875.814 363.605 875.814 363.605L876.263 363.445L875.867 361.596L876.963 360.987C876.963 360.987 883.051 365.317 885.631 367.752C888.211 370.188 893.364 373.498 895.068 375.363C896.031 376.475 896.909 377.658 897.694 378.902C897.275 379.868 896.377 381.771 895.715 382.045C895.715 382.045 890.86 384.541 890.654 385.333C890.525 385.783 890.531 386.262 890.669 386.71L891.05 387.646C892.885 387.564 894.689 387.151 896.377 386.428C899.461 385.011 902.469 383.434 905.388 381.702L904.863 380.249Z" fill="#AAAAAA"/>
<path d="M603.456 289.837C602.005 288.69 592.652 296.018 592.652 296.018L591.424 297.069C590.196 298.113 591.618 298.682 591.618 298.682L589.154 301.387C589.09 301.228 589.038 301.101 588.998 301.006C588.365 300.078 587.614 299.237 586.763 298.503C585.268 297.359 583.712 296.296 582.103 295.32C581.457 295.015 580.724 294.954 580.037 295.148L578.02 294.432C577.396 294.175 576.79 293.874 576.208 293.531L576.043 293.577L575.895 293.356C575.895 293.356 576.343 292.244 576.525 291.618C576.655 291.188 576.751 290.747 576.81 290.301C576.89 290.316 576.972 290.303 577.044 290.265C577.115 290.227 577.172 290.166 577.204 290.091C577.342 289.81 577.06 289.184 577.06 289.184C577.105 288.654 577.107 288.121 577.065 287.591C576.982 286.833 576.881 285.878 576.852 285.742C576.822 285.607 576.811 284.929 576.811 284.929C576.811 284.929 576.967 281.759 575.811 280.11C573.873 277.119 570.227 277.673 570.227 277.673C568.044 277.895 566.149 279.635 565.243 281.196C564.337 282.757 564.923 285.829 564.923 285.829C564.717 285.775 564.5 285.772 564.292 285.822C564.085 285.873 563.893 285.974 563.734 286.117C563.293 286.603 563.95 287.714 563.986 287.986C564.081 288.377 564.205 288.761 564.355 289.134L564.282 289.351L564.307 289.852C564.346 290.106 564.464 290.341 564.644 290.524C564.824 290.706 565.057 290.827 565.31 290.87C565.451 290.904 565.6 290.892 565.734 290.836C565.868 290.78 565.981 290.683 566.056 290.558C566.103 290.676 566.142 290.796 566.173 290.918C566.257 291.198 566.354 291.473 566.465 291.742C566.669 292.32 566.808 292.919 566.881 293.527C566.912 294.143 566.901 295.462 566.901 295.462C565.991 295.93 565.108 296.449 564.257 297.017C563.227 297.747 561.652 298.868 560.448 299.652C559.233 300.419 558.149 301.375 557.236 302.485C556.595 303.186 556.087 303.999 555.739 304.883C555.436 305.698 554.882 307.897 554.803 308.305C554.724 308.713 554.843 309.118 554.57 309.444C554.295 309.859 554.062 310.299 553.873 310.759C553.759 311.077 553.375 311.621 553.25 311.879C553.126 312.137 552.775 312.748 552.775 312.748L552.955 312.839C552.955 312.839 550.934 317.434 550.634 318.462C550.335 319.491 550.442 320.582 550.062 322.3C549.682 324.018 550.452 327.417 550.664 328.466C550.876 329.514 551.138 331.879 551.138 331.879C551.138 331.879 550.518 332.298 550.02 332.696C549.505 333.136 549.083 333.675 548.78 334.281C548.404 335.104 548.1 335.958 547.87 336.833C547.811 337.339 548.665 338.44 548.951 338.814L549.007 338.872C548.783 339.897 548.65 340.894 548.465 341.787C547.817 345.019 549.773 349.289 549.773 349.289C551.336 352.701 552.626 353.514 554.868 354.157C555.444 354.319 556.041 354.4 556.64 354.397L556.653 354.671C556.563 354.775 556.508 354.906 556.497 355.043C556.486 355.181 556.519 355.319 556.592 355.436C556.851 355.888 556.684 356.071 556.788 356.622C556.857 357.02 556.864 357.426 556.809 357.825C556.918 358.367 557.149 358.877 557.485 359.316C557.799 359.751 558.076 360.211 558.315 360.692C558.43 361.014 559.096 361.08 559.211 361.097C559.326 361.115 559.78 361.664 559.78 361.664C559.78 361.664 559.748 361.787 559.685 362.057C559.745 362.539 559.966 362.988 560.312 363.329C560.713 363.915 561.067 364.532 561.371 365.174C562.136 366.462 564.055 368.904 564.055 368.904C564.053 369.25 564.098 369.593 564.189 369.926C564.521 370.637 564.912 371.318 565.356 371.964C565.092 372.159 564.873 372.409 564.715 372.697C564.499 373.111 565.744 373.629 566.162 373.768C566.58 373.908 566.424 374.449 566.319 374.629C566.26 374.99 566.252 375.357 566.297 375.72L566.134 375.979C565.642 376.049 565.177 376.246 564.783 376.549C564.047 377.073 562.758 377.967 562.461 378.119C562.163 378.271 559.81 379.066 559.302 379.418C558.793 379.771 558.495 380.373 558.902 380.741C559.152 381.948 561.071 381.914 562.449 381.884C563.826 381.854 568.126 381.291 568.126 381.291C569.958 381.2 575.005 380.798 575.446 380.777C575.967 380.682 576.445 380.427 576.812 380.046C576.686 379.739 576.534 379.443 576.357 379.162C576.357 379.162 576.451 378.281 576.5 378.042C576.546 377.887 576.546 377.721 576.501 377.565C576.455 377.409 576.366 377.27 576.243 377.164C575.788 376.626 575.458 375.994 575.275 375.314C575.294 374.959 575.188 374.608 574.975 374.323C574.773 374.097 574.867 373.376 575.021 372.942C575.059 372.271 574.974 371.598 574.77 370.958C574.669 370.437 572.519 369.027 572.279 368.795C571.983 368.248 571.752 367.669 571.591 367.069C571.345 366.538 571.193 365.968 571.142 365.384C570.977 364.682 570.746 363.997 570.454 363.338C570.118 362.387 569.278 360.661 568.995 360.019C568.712 359.378 567.81 358.554 568.145 358.233C568.479 357.911 568.872 357.541 568.265 357.122C567.658 356.702 567.64 356.185 568.316 355.687C568.992 355.189 568.483 354.749 568.243 354.22C568.004 353.691 568.419 353.449 568.683 352.933C568.928 352.46 569.024 351.924 568.957 351.396C568.857 351.058 569.476 349.397 569.783 348.528C569.95 348.08 570.082 347.62 570.18 347.152C570.419 347.234 570.628 347.385 570.781 347.587C571.173 348.047 571.374 348.64 571.342 349.243C571.236 349.507 571.222 349.8 571.303 350.073C571.385 350.346 571.556 350.583 571.79 350.745C572.34 351.236 572.029 352.029 571.902 354.245C571.775 356.461 574.183 357.995 574.183 357.995C574.183 357.995 574.393 358.701 574.899 360.307C575.405 361.912 576.551 367.365 576.924 368.741C577.297 370.117 579.106 374.043 579.106 374.043C579.106 374.043 578.969 374.811 578.746 376.156C578.499 377.34 578.41 378.551 578.482 379.758C578.611 380.513 579.846 381.458 580.165 382.044C580.483 382.631 580.95 382.509 580.95 382.509C580.95 382.509 580.959 382.699 580.973 382.972C580.991 383.166 581.047 383.355 581.137 383.528C580.91 384.008 580.803 384.536 580.825 385.067C580.862 385.416 580.848 385.768 580.785 386.113L580.988 386.217C580.988 386.217 580.931 386.594 580.832 387.063C580.733 387.533 580.022 388.246 578.447 390.922C576.873 393.599 577.622 394.567 577.622 394.567L577.441 394.927L577.457 395.238C577.472 395.55 578.308 395.661 578.308 395.661L580.201 395.88C582.433 396.029 584.672 395.7 586.767 394.915C589.014 394.126 588.547 392.846 588.736 392.357C588.925 391.867 590.121 390.924 590.181 390.761C590.242 390.598 589.908 390.013 589.908 390.013C589.984 389.556 590.019 389.092 590.015 388.629C589.989 388.226 589.931 387.826 589.841 387.433C589.841 387.433 590.014 387.387 590.239 387.299C590.416 387.226 590.588 387.138 590.751 387.038C590.751 387.038 590.921 386.161 590.957 385.808C590.907 385.085 590.749 384.374 590.487 383.698C590.19 382.76 590.617 382.777 591.453 382.424C591.882 382.258 592.232 381.937 592.433 381.524C592.635 381.112 592.673 380.638 592.539 380.198C592.213 379.452 590.536 379.292 590.206 379.247C589.876 379.202 589.35 378.413 589.154 377.996C588.958 377.579 589.397 377.367 589.401 376.361C589.351 375.618 589.125 374.897 588.741 374.26C589.04 373.799 589.272 373.297 589.429 372.77C589.433 371.776 589.32 370.784 589.092 369.815C588.82 368.625 588.281 366.046 588.028 365.235C587.774 364.425 587.619 361.278 587.131 359.572C586.642 357.867 585.752 354.81 585.372 353.899C585.144 353.313 584.832 352.764 584.446 352.268C584.348 352.136 584.39 351.143 584.275 350.357C584.032 349.689 583.607 349.103 583.048 348.665C583.03 348.429 582.985 348.196 582.915 347.97C582.842 347.657 582.874 347.329 583.006 347.036C583.079 346.43 583.049 345.816 582.916 345.219C582.918 344.624 583.004 344.033 583.172 343.462C583.287 342.786 583.352 342.103 583.368 341.418L583.358 341.205C583.347 340.992 584.018 339.153 584.154 338.819C584.089 338.01 583.924 337.212 583.663 336.443L583.942 335.766L583.927 335.462C584.079 334.791 584.265 334.128 584.484 333.476C584.494 333.298 584.518 333.121 584.557 332.947C584.63 332.417 584.611 330.483 584.611 330.483C584.677 330.301 584.781 330.136 584.914 329.996C585.168 329.723 585.346 329.388 585.43 329.025C585.418 328.79 585.643 328.253 585.753 327.691C585.862 327.129 584.955 326.968 584.955 326.968L584.703 326.646C584.513 326.35 585.074 325.987 585.266 325.856C585.457 325.724 585.428 325.284 585.426 324.781C585.424 324.278 585.476 322.394 585.476 322.394C586.271 322.562 587.082 322.64 587.895 322.625C588.934 322.365 589.877 321.813 590.613 321.035C591.493 320.039 591.459 318.585 591.527 317.652C591.552 316.962 591.375 316.28 591.019 315.689C590.745 314.963 590.581 314.201 590.534 313.427C590.517 312.755 590.555 312.083 590.648 311.417L590.753 311.549C590.678 311.018 590.573 310.491 590.439 309.972C590.304 309.552 590.466 308.813 590.118 305.782C590.115 305.729 590.113 305.683 590.111 305.637L594.328 300.941C595.009 301.149 595.726 301.213 596.433 301.126C597.184 300.914 601.681 295.533 601.681 295.533L603.332 293.478C604.928 291.395 604.908 290.985 603.456 289.837ZM556.126 325.971C556.343 324.579 556.449 323.172 556.444 321.764C556.718 321.024 557.094 320.326 557.56 319.69C558.065 318.964 559.201 316.812 559.201 316.812C559.322 317.072 559.357 317.364 559.303 317.645C559.222 318.346 559.219 319.054 559.293 319.756C559.306 320.273 559.244 320.79 559.11 321.289C558.991 321.958 558.929 324.56 558.787 324.932C558.646 325.305 558.692 326.857 558.436 327.236C558.181 327.614 558.535 327.993 558.487 328.262C558.484 328.731 558.417 329.199 558.289 329.651C558.182 329.801 558.308 330.031 558.312 330.107C557.263 330.631 556.059 330.782 554.562 331.328C554.554 331.161 554.547 331.032 554.547 331.032C554.547 331.032 555.795 327.595 556.126 325.971Z" fill="#AAAAAA"/>
</svg>
